<svg width="1440" height="1024" viewBox="0 0 1440 1024" fill="none" xmlns="http://www.w3.org/2000/svg" xmlns:xlink="http://www.w3.org/1999/xlink">
<g>
<rect y="-56" width="1440" height="1080" fill="url(#pattern0)"/>
<circle cx="136.5" cy="113.5" r="17.5" fill="#F41E82"/>
<circle cx="164.5" cy="310.5" r="17.5" fill="#F41E82"/>
<circle cx="210.5" cy="471.5" r="17.5" fill="#F41E82"/>
<circle cx="413.5" cy="464.5" r="17.5" fill="#F41E82"/>
<circle cx="885.5" cy="364.5" r="17.5" fill="#F41E82"/>
<circle cx="745.5" cy="331" r="17.5" fill="#F41E82"/>
<circle cx="1314.5" cy="484.5" r="17.5" fill="#F41E82"/>
<circle cx="480.5" cy="968.5" r="17.5" fill="#F41E82"/>
<circle cx="584.5" cy="829.5" r="17.5" fill="#F41E82"/>
<circle cx="864.5" cy="962.5" r="17.5" fill="#F41E82"/>
<circle cx="843.5" cy="789.5" r="17.5" fill="#F41E82"/>
<circle cx="1139.5" cy="822.5" r="17.5" fill="#F41E82"/>
<circle cx="1123.5" cy="954.5" r="17.5" fill="#F41E82"/>
<circle cx="1186.5" cy="759.5" r="17.5" fill="#F41E82"/>
<circle cx="1056.5" cy="863.5" r="17.5" fill="#F41E82"/>
<circle cx="426.5" cy="795.5" r="17.5" fill="#F41E82"/>
<circle cx="645.5" cy="752.5" r="17.5" fill="#F41E82"/>
<circle cx="54.5" cy="491.5" r="17.5" fill="#F41E82"/>
</g>
<image href="bg.jpg" width="1440" height="1024" />
</svg>
