<svg width="70" height="130" viewBox="0 0 70 130" fill="none" xmlns="http://www.w3.org/2000/svg">
<g clip-path="url(#clip0_2_40)">
<path d="M70 0.850098L0 7.32275L9.38078 129.85L62.3013 124.284L70 0.850098Z" fill="#F10985"/>
<path d="M57.3845 61.3696L56.9316 49.4599C56.6728 42.34 56.0259 37.1619 55.0554 33.8608C54.0203 30.5597 52.5323 27.5176 50.4621 24.7344C48.4566 21.9511 45.7394 19.8151 42.3752 18.3912C39.0111 16.9672 35.1941 16.3199 30.7948 16.5141C24.7135 16.773 19.732 18.5206 15.915 21.6275C12.098 24.7991 9.70424 28.4238 8.66912 32.3721C7.634 36.3851 7.24583 42.6636 7.43992 51.2075L28.4011 50.2366L28.207 44.3465C28.0129 38.6506 28.0776 34.9612 28.4658 33.343C28.854 31.7248 29.8244 30.8187 31.4418 30.7539C32.7357 30.6892 33.5767 31.2717 34.0943 32.4368C34.5471 33.6666 34.8706 36.0615 35 39.6215L35.5822 55.8031C35.7763 62.1463 35.7116 66.1593 35.3235 67.7775C34.9353 69.3957 33.8355 70.3018 32.0887 70.3666C29.8891 70.496 28.6599 68.6837 28.4658 64.9943L9.38077 65.9004L10.3512 92.6972L29.8891 91.7911L29.5009 81.3054C32.1534 85.8362 36.0351 87.9075 41.0813 87.7133C44.963 87.5191 48.3272 86.0951 51.1737 83.5061C54.0203 80.8523 55.7671 77.8748 56.5434 74.5738C57.2551 71.208 57.5139 66.8066 57.3845 61.3696Z" fill="#1A1A1A"/>
<path d="M34.4824 96.7748L14.9445 97.7457L15.6562 117.228L35.1941 116.322L34.4824 96.7748Z" fill="#1A1A1A"/>
<path d="M63.2717 53.0845L62.8189 41.1748C62.5601 34.0549 61.9131 28.8768 60.9427 25.5757C59.9076 22.2747 58.4196 19.2325 56.3494 16.4493C54.3438 13.666 51.6266 11.5301 48.2625 10.1061C44.8983 8.68211 41.0813 8.03484 36.6821 8.22902C30.6008 8.48793 25.6192 10.2355 21.8022 13.3424C17.9852 16.4493 15.5268 20.074 14.4917 24.0223C13.4566 28.0353 13.0684 34.3138 13.2625 42.8577L34.2884 41.9515L34.0943 36.0614C33.9002 30.3655 33.9649 26.6761 34.3531 25.0579C34.7412 23.4398 35.7117 22.5336 37.329 22.4689C38.6229 22.4041 39.464 22.9867 39.9815 24.1517C40.4344 25.3816 40.7579 27.7764 40.8873 31.3364L41.4695 47.518C41.6636 53.8612 41.5989 57.8743 41.2107 59.4924C40.8226 61.1106 39.7228 62.0168 37.976 62.0815C35.7764 62.211 34.5471 60.3986 34.3531 56.7092L15.268 57.6154L16.2385 84.4122L35.7764 83.506L35.3882 73.0203C38.0407 77.5511 41.9224 79.6224 46.9686 79.4282C50.8503 79.234 54.2144 77.81 57.061 75.221C59.9076 72.5672 61.6544 69.5898 62.4307 66.2887C63.207 62.9229 63.4658 58.5215 63.2717 53.0845Z" fill="#FFDD00"/>
<path d="M35.9704 88.4897L16.4325 89.4606L17.0795 108.943L36.6174 108.037L35.9704 88.4897Z" fill="#FFDD00"/>
</g>
<defs>
<clipPath id="clip0_2_40">
<rect width="70" height="129" fill="white" transform="translate(0 0.850098)"/>
</clipPath>
</defs>
</svg>
